<svg xmlns="http://www.w3.org/2000/svg" viewBox="0 0 80 30" width="80" height="30">
  <path fill="#FF9900" d="M24.3 19.8c-2.5 1.8-6.1 2.8-9.3 2.8-4.4 0-8.4-1.6-11.4-4.3-.2-.2 0-.5.3-.3 3.3 1.9 7.3 3 11.5 3 2.8 0 5.9-.6 8.7-1.8.4-.2.8.3.2.6z"/>
  <path fill="#FF9900" d="M25.3 18.6c-.3-.4-2.1-.2-2.9-.1-.2 0-.3-.2-.1-.3 1.4-1 3.7-.7 4-.4.3.3-.1 2.6-1.4 3.7-.2.1-.4.0-.3-.2.3-.8.9-2.5.7-2.7z"/>
  <path fill="#FF9900" d="M22.7 5.5v-1c0-.3.2-.5.5-.5h4.7c.3 0 .5.2.5.5v.9c0 .3-.3.7-.7 1.3l-1.6 2.3c.6 0 1.2-.1 1.7-.3.3-.1.4.1.4.3v1.1c0 .3-.2.5-.4.6-.6.2-1.5.4-2.4.4-1.4 0-2.4-.5-3.1-1.4l1.8-2.6c.3-.4.4-.7.4-1z"/>
  <path fill="#FF9900" d="M31.1 3.5h1.6c.3 0 .5.2.5.5v8.2c0 .3-.2.5-.5.5h-1.5c-.3 0-.5-.2-.5-.5v-8.2c0-.3.2-.5.4-.5z"/>
  <path fill="#FF9900" d="M39.8 12.2c-2.4 0-3.8-1.4-3.8-3.6V3.9c0-.3.2-.5.5-.5h1.6c.3 0 .5.2.5.5v4.6c0 1.2.6 1.8 1.7 1.8s1.7-.6 1.7-1.8V3.9c0-.3.2-.5.5-.5h1.6c.3 0 .5.2.5.5v4.7c0 2.2-1.5 3.6-3.8 3.6z"/>
  <path fill="#FF9900" d="M50.3 3.5h3.8c1.9 0 2.8 1 2.8 2.5 0 1.7-1.1 2.6-2.9 2.6h-2v2.6c0 .3-.2.5-.5.5h-1.6c-.3 0-.5-.2-.5-.5V3.9c-.1-.3.1-.4.9-.4zm.5 3.7h2.2c.8 0 1.3-.4 1.3-1.1 0-.7-.5-1.1-1.3-1.1h-2.2v2.2z"/>
</svg>